<svg width="7" height="12" viewBox="0 0 7 12" fill="none" xmlns="http://www.w3.org/2000/svg">
<path d="M0.292893 1.70711C-0.0976315 1.31658 -0.0976315 0.683417 0.292893 0.292893C0.683417 -0.0976311 1.31658 -0.0976311 1.70711 0.292893L0.292893 1.70711ZM6 6L6.70711 5.29289C7.09763 5.68342 7.09763 6.31658 6.70711 6.70711L6 6ZM1.70711 11.7071C1.31658 12.0976 0.683417 12.0976 0.292893 11.7071C-0.0976315 11.3166 -0.0976315 10.6834 0.292893 10.2929L1.70711 11.7071ZM1.70711 0.292893L6.70711 5.29289L5.29289 6.70711L0.292893 1.70711L1.70711 0.292893ZM6.70711 6.70711L1.70711 11.7071L0.292893 10.2929L5.29289 5.29289L6.70711 6.70711Z" fill="#C3D1DA"/>
</svg>
