<svg width="22" height="22" fill="none" xmlns="http://www.w3.org/2000/svg"><path d="M1 .998a1 1 0 100 2v-2zm1.782 1l.91-.415-.266-.585h-.644v1zm4.105 9.005l-.91.415.267.586h.643v-1zM20.443 7.48l.74.673.031-.034.027-.036-.797-.603zm-2.574 2.832l.688.726.027-.026.025-.027-.74-.673zM1 2.998h1.782v-2H1v2zm.873-.585l4.104 9.005 1.82-.83-4.105-9.005-1.82.83zm19.368 5.67c.577-.763.628-1.768.258-2.57-.391-.847-1.242-1.462-2.38-1.462v2c.194 0 .315.048.388.095a.53.53 0 01.138.731l1.596 1.206zM19.12 4.05H4.175v2H19.12v-2zM6.887 12.004h8.717v-2H6.887v2zm11.722-1.02l2.574-2.831-1.48-1.346L17.13 9.64l1.48 1.346zm-1.427-1.398c-.246.232-.433.315-.614.358-.227.054-.487.06-.964.06v2c.422 0 .93.005 1.428-.114.544-.13 1.04-.393 1.525-.852l-1.375-1.452z" fill="#8BA3BA"/><circle cx="8.218" cy="18.513" r="1.491" stroke="#8BA3BA" stroke-width="2"/><circle cx="15.827" cy="18.513" r="1.491" stroke="#8BA3BA" stroke-width="2"/><path d="M5.826 13.085l.846.532.007-.011-.853-.521zm13.382 2.935a1 1 0 000-2v2zM6.347 10.312l-1.375 2.251 1.707 1.043 1.375-2.252-1.707-1.042zm-1.368 2.24c-.349.554-.491 1.39-.156 2.14.383.857 1.25 1.328 2.377 1.328v-2c-.293 0-.436-.057-.491-.088-.047-.026-.056-.046-.06-.056a.266.266 0 01-.014-.13.331.331 0 01.037-.129l-1.693-1.065zM7.2 16.02h12.007v-2H7.2v2z" fill="#8BA3BA"/></svg>