<svg width="32" height="43" viewBox="0 0 32 43" fill="none" xmlns="http://www.w3.org/2000/svg">
<path d="M17.3048 35H1V1H29V19.8056" stroke="#8597AE" stroke-width="2" stroke-miterlimit="3.8637"/>
<path d="M24.5 31C25.8807 31 27 29.8807 27 28.5C27 27.1193 25.8807 26 24.5 26C23.1193 26 22 27.1193 22 28.5C22 29.8807 23.1193 31 24.5 31Z" stroke="#8597AE" stroke-width="2" stroke-miterlimit="3.8637"/>
<path d="M24.5 35C28.0898 35 31 32.0899 31 28.5C31 24.9101 28.0898 22 24.5 22C20.9101 22 18 24.9101 18 28.5C18 32.0899 20.9101 35 24.5 35Z" stroke="#8597AE" stroke-width="2" stroke-miterlimit="3.8637"/>
<path d="M21 34.5391V40.9201L24.487 38.7231L28.174 40.7711V34.5391" stroke="#8597AE" stroke-width="2" stroke-miterlimit="3.8637"/>
<path d="M15.4922 6H24.0912" stroke="#8597AE" stroke-width="2" stroke-miterlimit="3.8637"/>
<path d="M5.49219 11H23.9212" stroke="#8597AE" stroke-width="2" stroke-miterlimit="3.8637"/>
<path d="M5.49219 15H23.9212" stroke="#8597AE" stroke-width="2" stroke-miterlimit="3.8637"/>
<path d="M5.49219 19H16.5952" stroke="#8597AE" stroke-width="2" stroke-miterlimit="3.8637"/>
<path d="M5.49219 23H14.4362" stroke="#8597AE" stroke-width="2" stroke-miterlimit="3.8637"/>
<path d="M6 29H11.841" stroke="#8597AE" stroke-width="2" stroke-miterlimit="3.8637"/>
</svg>
