<svg width="42" height="32" viewBox="0 0 42 32" fill="none" xmlns="http://www.w3.org/2000/svg">
<path d="M21.1375 20.191C25.4539 20.191 28.953 16.6919 28.953 12.3755C28.953 8.05912 25.4539 4.56 21.1375 4.56C16.8211 4.56 13.322 8.05912 13.322 12.3755C13.322 16.6919 16.8211 20.191 21.1375 20.191Z" stroke="#8597AE" stroke-width="2" stroke-miterlimit="3.8637"/>
<path fill-rule="evenodd" clip-rule="evenodd" d="M2 12.4685C2 12.4685 10.3596 1 21.4816 1C32.6036 1 40.2734 12.6747 40.2734 12.6747C40.2734 12.6747 32.6046 23.9359 21.4816 23.9359C10.3585 23.9359 2 12.4685 2 12.4685Z" stroke="#8597AE" stroke-width="2" stroke-miterlimit="3.8637"/>
<path d="M21.1376 15.424C22.8212 15.424 24.1861 14.0591 24.1861 12.3755C24.1861 10.6919 22.8212 9.32703 21.1376 9.32703C19.454 9.32703 18.0891 10.6919 18.0891 12.3755C18.0891 14.0591 19.454 15.424 21.1376 15.424Z" stroke="#8597AE" stroke-width="2" stroke-miterlimit="3.8637"/>
<path d="M25.8047 19.131L34.9253 30.8047" stroke="#8597AE" stroke-width="2" stroke-miterlimit="3.8637" stroke-linecap="round"/>
</svg>
