<svg width="31" height="31" viewBox="0 0 31 31" fill="none" xmlns="http://www.w3.org/2000/svg">
<path d="M1 1H29.9783V29.9783H1V1Z" stroke="#8597AE" stroke-width="2" stroke-miterlimit="3.8637"/>
<path d="M9.24385 13.6735C11.5415 13.6735 13.4041 11.8109 13.4041 9.51326C13.4041 7.21563 11.5415 5.35303 9.24385 5.35303C6.94622 5.35303 5.08362 7.21563 5.08362 9.51326C5.08362 11.8109 6.94622 13.6735 9.24385 13.6735Z" stroke="#8597AE" stroke-width="2" stroke-miterlimit="3.8637"/>
<path d="M21.7346 25.624C24.0322 25.624 25.8948 23.7614 25.8948 21.4638C25.8948 19.1661 24.0322 17.3035 21.7346 17.3035C19.4369 17.3035 17.5743 19.1661 17.5743 21.4638C17.5743 23.7614 19.4369 25.624 21.7346 25.624Z" stroke="#8597AE" stroke-width="2" stroke-miterlimit="3.8637"/>
<path d="M21.3489 4.7356L9.01154 26.2417" stroke="#8597AE" stroke-width="2" stroke-miterlimit="3.8637"/>
</svg>
