<svg width="20" height="20" viewBox="0 0 20 20" fill="none" xmlns="http://www.w3.org/2000/svg">
<circle r="9" transform="matrix(4.37114e-08 -1 -1 -4.37114e-08 10 10)" stroke="#B9C5D3" stroke-width="2"/>
<path d="M9.00045 7.806H7.26645C7.24379 7.54533 7.23245 7.35267 7.23245 7.228C7.23245 6.46867 7.47045 5.82833 7.94645 5.307C8.42245 4.77433 9.10812 4.508 10.0035 4.508C10.8195 4.508 11.4825 4.746 11.9925 5.222C12.5138 5.698 12.7745 6.36667 12.7745 7.228C12.7745 8.08933 12.4401 8.76367 11.7715 9.251C11.4541 9.47767 10.8875 9.744 10.0715 10.05C9.89012 10.118 9.74279 10.1803 9.62945 10.237C9.52745 10.2823 9.41979 10.3787 9.30645 10.526C9.19312 10.662 9.13645 10.832 9.13645 11.036C9.13645 11.2853 9.21579 11.4893 9.37445 11.648C9.53312 11.7953 9.73712 11.869 9.98645 11.869C10.3038 11.869 10.5418 11.733 10.7005 11.461C10.8251 11.257 10.8761 11.0077 10.8535 10.713H12.5195C12.5081 11.3703 12.3608 11.903 12.0775 12.311C11.5901 13.0363 10.8818 13.399 9.95245 13.399C9.27245 13.399 8.68312 13.178 8.18445 12.736C7.68579 12.294 7.43645 11.6763 7.43645 10.883C7.43645 10.237 7.60645 9.75533 7.94645 9.438C8.29779 9.10933 8.80212 8.82033 9.45945 8.571C10.1508 8.31033 10.5645 8.12333 10.7005 8.01C10.9498 7.806 11.0745 7.52267 11.0745 7.16C11.0745 6.84267 10.9838 6.57633 10.8025 6.361C10.6211 6.14567 10.3548 6.038 10.0035 6.038C9.64079 6.038 9.36879 6.15133 9.18745 6.378C9.01745 6.60467 8.93245 6.89367 8.93245 7.245C8.93245 7.39233 8.95512 7.57933 9.00045 7.806ZM9.28945 15.915C9.09679 15.711 9.00045 15.4673 9.00045 15.184C9.00045 14.9007 9.09679 14.6627 9.28945 14.47C9.49345 14.266 9.73712 14.164 10.0205 14.164C10.3038 14.164 10.5418 14.266 10.7345 14.47C10.9385 14.6627 11.0405 14.9007 11.0405 15.184C11.0405 15.4673 10.9385 15.711 10.7345 15.915C10.5418 16.1077 10.3038 16.204 10.0205 16.204C9.73712 16.204 9.49345 16.1077 9.28945 15.915Z" fill="#B0BDCD"/>
</svg>
