<svg width="41" height="31" viewBox="0 0 41 31" fill="none" xmlns="http://www.w3.org/2000/svg">
<path d="M20.6197 19.6709C24.8195 19.6709 28.2241 16.2663 28.2241 12.0665C28.2241 7.86674 24.8195 4.46216 20.6197 4.46216C16.42 4.46216 13.0154 7.86674 13.0154 12.0665C13.0154 16.2663 16.42 19.6709 20.6197 19.6709Z" stroke="#38526C" stroke-width="2" stroke-miterlimit="3.8637"/>
<path fill-rule="evenodd" clip-rule="evenodd" d="M2 12.1587C2 12.1587 10.1337 1 20.9552 1C31.7767 1 39.2393 12.3593 39.2393 12.3593C39.2393 12.3593 31.7778 23.3163 20.9552 23.3163C10.1327 23.3163 2 12.1587 2 12.1587Z" stroke="#38526C" stroke-width="2" stroke-miterlimit="3.8637"/>
<path d="M20.6199 15.0348C22.2581 15.0348 23.586 13.7068 23.586 12.0687C23.586 10.4305 22.2581 9.10254 20.6199 9.10254C18.9818 9.10254 17.6538 10.4305 17.6538 12.0687C17.6538 13.7068 18.9818 15.0348 20.6199 15.0348Z" stroke="#38526C" stroke-width="2" stroke-miterlimit="3.8637"/>
<path d="M25.1614 18.6414L34.0356 29.9996" stroke="#38526C" stroke-width="2" stroke-miterlimit="3.8637" stroke-linecap="round"/>
</svg>
