<svg width="18" height="19" fill="none" xmlns="http://www.w3.org/2000/svg"><path d="M5.82 1.766a1 1 0 00-1.507-.32l-2.32 1.839c-.29.224-.518.52-.662.857-.145.339-.2.71-.163 1.077h0a14.97 14.97 0 003.173 7.777l.009.011a15.003 15.003 0 006.938 4.754 2.19 2.19 0 002.078-.39l.002-.001 2.278-1.85a1 1 0 00.007-1.547l-2.976-2.462a1 1 0 00-1.183-.067l-1.316.855a7.86 7.86 0 01-2.39-2.074 7.812 7.812 0 01-1.492-2.733l1.132-1.116A1 1 0 007.612 5.2L5.821 1.766z" fill="#fff" stroke="#A5B4C2" stroke-width="2" stroke-linejoin="round"/></svg>