<svg width="20" height="20" fill="none" xmlns="http://www.w3.org/2000/svg"><mask id="a" maskUnits="userSpaceOnUse" x="0" y="0" width="20" height="20" fill="#000"><path fill="#fff" d="M0 0h20v20H0z"/><path d="M15.8 18c-1.368-.023-6.05-.39-9.73-4.07C2.38 10.239 2.022 5.54 2 4.199L4.199 2l2.835 2.836-1.418 1.418a1.096 1.096 0 00-.298 1c.027.126.67 3.116 2.49 4.936 1.82 1.82 4.811 2.464 4.937 2.49a1.087 1.087 0 001-.296l1.42-1.418L18 15.8 15.8 18z"/></mask><path d="M15.8 18l-.033 2a2 2 0 001.447-.585L15.8 18zm-9.73-4.07l1.415-1.415L6.07 13.93zM2 4.199L.586 2.784A2 2 0 000 4.231L2 4.2zM4.199 2L5.613.586a2 2 0 00-2.829 0L4.2 2zm2.835 2.836L8.45 6.25a2 2 0 000-2.828L7.034 4.836zM5.616 6.254L7.03 7.668 5.617 6.254zm-.298 1l1.958-.409-1.958.409zm7.427 7.427l.42-1.956-.011-.002-.409 1.958zm1-.297l-1.413-1.415-.007.006 1.42 1.409zm1.42-1.418l1.413-1.414a2 2 0 00-2.827-.001l1.413 1.415zM18 15.8l1.414 1.415a2 2 0 000-2.829L18 15.801zm-2.166.2c-1.181-.02-5.219-.354-8.35-3.486l-2.828 2.829c4.228 4.228 9.555 4.63 11.11 4.656l.068-4zm-8.35-3.486C4.345 9.375 4.02 5.322 4 4.165l-4 .066c.025 1.527.415 6.872 4.656 11.113l2.829-2.829zm-4.07-6.902l2.199-2.199L2.784.586.586 2.784l2.828 2.829zm-.63-2.199L5.62 6.25l2.83-2.828L5.613.586 2.784 3.414zm2.836.008L4.202 4.839l2.829 2.829L8.449 6.25 5.62 3.422zM4.203 4.839a3.097 3.097 0 00-.779 1.305l3.833 1.143a.904.904 0 01-.227.381l-2.827-2.83zm-.779 1.305a3.097 3.097 0 00-.063 1.519l3.915-.819a.91.91 0 01-.019.443L3.424 6.144zM3.36 7.662c.028.132.224 1.029.67 2.16.438 1.106 1.177 2.596 2.364 3.783l2.829-2.829c-.634-.633-1.126-1.55-1.472-2.425-.337-.85-.476-1.511-.475-1.506l-3.916.817zm3.034 5.943c1.187 1.186 2.677 1.926 3.783 2.363 1.13.447 2.028.643 2.16.67l.817-3.915c.005.001-.656-.138-1.506-.475-.876-.346-1.792-.838-2.425-1.472l-2.829 2.829zm5.93 3.031a3.087 3.087 0 001.529-.059l-1.14-3.834a.914.914 0 01.453-.018l-.841 3.911zm1.529-.059a3.087 3.087 0 001.312-.785l-2.84-2.817a.914.914 0 01.389-.232l1.139 3.834zm1.306-.779l1.419-1.418-2.827-2.83-1.42 1.419 2.828 2.83zM13.75 14.38l2.836 2.836 2.828-2.829-2.836-2.835-2.828 2.828zm2.836.007l-2.2 2.198 2.828 2.83 2.2-2.199-2.828-2.83z" fill="#8BA3BA" mask="url(#a)"/></svg>