<svg width="16" height="20" fill="none" xmlns="http://www.w3.org/2000/svg"><path d="M14.308 7.5c0 .816-.333 1.956-.941 3.284-.596 1.304-1.41 2.688-2.265 3.962-.854 1.273-1.734 2.411-2.45 3.221-.337.381-.623.674-.844.87a10.65 10.65 0 01-.845-.87c-.716-.81-1.596-1.948-2.45-3.221-.855-1.274-1.669-2.658-2.265-3.962-.608-1.328-.94-2.468-.94-3.284a6.5 6.5 0 0113 0zM7.516 19.062l.018-.01a.092.092 0 01-.018.01zm.565-.01l.019.01a.09.09 0 01-.019-.01z" stroke="#A5B4C2" stroke-width="2"/><circle cx="7.808" cy="7.5" r="1.5" stroke="#A5B4C2" stroke-width="2"/></svg>