<svg width="13" height="13" viewBox="0 0 13 13" fill="none" xmlns="http://www.w3.org/2000/svg">
<path d="M4.35964 6.04033C4.1058 5.78649 3.69425 5.78649 3.44041 6.04033C3.18656 6.29417 3.18656 6.70573 3.44041 6.95957L4.35964 6.04033ZM5.85002 8.44995L5.3904 8.90957L5.85002 9.36919L6.30964 8.90957L5.85002 8.44995ZM9.55964 5.65957C9.81348 5.40573 9.81348 4.99417 9.55964 4.74033C9.3058 4.48649 8.89425 4.48649 8.6404 4.74033L9.55964 5.65957ZM3.44041 6.95957L5.3904 8.90957L6.30964 7.99033L4.35964 6.04033L3.44041 6.95957ZM6.30964 8.90957L9.55964 5.65957L8.6404 4.74033L5.3904 7.99033L6.30964 8.90957Z" fill="#7C89AB"/>
<circle cx="6.5" cy="6.5" r="5.85" stroke="#7C89AB" stroke-width="1.3"/>
</svg>
