<svg width="17" height="13" fill="none" xmlns="http://www.w3.org/2000/svg"><path d="M16.184 1.736a6.295 6.295 0 01-1.81.497A3.158 3.158 0 0015.76.488a6.317 6.317 0 01-2.003.766 3.156 3.156 0 00-5.373 2.875A8.95 8.95 0 011.886.835a3.157 3.157 0 00.976 4.21 3.14 3.14 0 01-1.428-.395C1.4 6.11 2.447 7.477 3.963 7.78a3.16 3.16 0 01-1.424.054 3.155 3.155 0 002.945 2.189A6.34 6.34 0 01.816 11.33a8.926 8.926 0 004.834 1.417c5.853 0 9.16-4.944 8.96-9.378.617-.446 1.152-1 1.574-1.633z" fill="#fff"/></svg>