<svg width="39" height="39" fill="none" xmlns="http://www.w3.org/2000/svg"><circle cx="19.5" cy="19.5" r="19.5" fill="#B8C5D1"/><path d="M27.184 14.736a6.295 6.295 0 01-1.81.497 3.158 3.158 0 001.386-1.745 6.315 6.315 0 01-2.003.766 3.156 3.156 0 00-5.373 2.875 8.95 8.95 0 01-6.498-3.294 3.157 3.157 0 00.976 4.21 3.139 3.139 0 01-1.428-.395c-.034 1.46 1.013 2.827 2.529 3.131-.444.12-.93.149-1.424.054a3.155 3.155 0 002.945 2.189 6.34 6.34 0 01-4.668 1.306 8.926 8.926 0 004.834 1.417c5.853 0 9.16-4.944 8.96-9.378.617-.445 1.152-1 1.574-1.633z" fill="#fff"/></svg>