<svg width="16" height="9" viewBox="0 0 16 9" fill="none" xmlns="http://www.w3.org/2000/svg">
<path fill-rule="evenodd" clip-rule="evenodd" d="M8.78619 8.95808C8.78619 8.95808 9.0742 8.92583 9.21821 8.78185C9.36222 8.63711 9.34621 8.36263 9.34621 8.36263C9.34621 8.36263 9.33022 7.09374 9.92225 6.91676C10.5143 6.72327 11.2663 8.1384 12.0663 8.66861C12.6744 9.08707 13.1384 8.99033 13.1384 8.99033L15.2665 8.95808C15.2665 8.95808 16.3865 8.89434 15.8585 8.02591C15.8105 7.96142 15.5545 7.38322 14.2737 6.20956C12.9296 4.98792 13.1056 5.1814 14.7217 3.07483C15.6978 1.77369 16.0978 0.986259 15.9698 0.648037C15.8578 0.327065 15.1377 0.408056 15.1377 0.408056L12.7216 0.423805C12.7216 0.423805 12.5464 0.408057 12.4184 0.48755C12.2904 0.552045 12.2104 0.728279 12.2104 0.728279C12.2104 0.728279 11.8263 1.74069 11.3143 2.59262C10.2423 4.37672 9.82624 4.47346 9.65023 4.36022C9.23421 4.10299 9.33022 3.31556 9.33022 2.76961C9.33022 1.01775 9.60223 0.294066 8.81819 0.117081C8.56218 0.052587 8.37017 0.00459132 7.69814 0.00459132C6.8341 -0.0111573 6.11406 0.0045909 5.69804 0.198074C5.42603 0.342812 5.21802 0.631539 5.34603 0.648037C5.50603 0.663786 5.85805 0.744778 6.05006 1.00201C6.29007 1.32373 6.29007 2.07966 6.29007 2.07966C6.29007 2.07966 6.43408 4.12099 5.95406 4.37747C5.63404 4.55446 5.18602 4.18399 4.22597 2.56112C3.74595 1.7257 3.37793 0.809272 3.37793 0.809272C3.37793 0.809272 3.29793 0.632288 3.16993 0.552045C3.02592 0.439555 2.80191 0.390809 2.80191 0.390809L0.513803 0.407307C0.513803 0.407307 0.177786 0.423055 0.0497801 0.567043C-0.0622251 0.696032 0.0497801 0.969759 0.0497801 0.969759C0.0497801 0.969759 1.82586 5.10041 3.85796 7.17323C5.71481 9.08632 7.82615 8.95733 7.82615 8.95733H8.78619V8.95808Z" fill="#5183B9"/>
</svg>
