<svg width="16" height="9" fill="none" xmlns="http://www.w3.org/2000/svg"><path fill-rule="evenodd" clip-rule="evenodd" d="M8.786 8.958s.288-.032.432-.176c.144-.145.128-.42.128-.42s-.016-1.268.576-1.445c.592-.194 1.344 1.221 2.144 1.752.608.418 1.072.321 1.072.321l2.129-.032s1.12-.064.591-.932c-.048-.065-.303-.643-1.584-1.816-1.344-1.222-1.168-1.029.448-3.135.976-1.301 1.376-2.089 1.248-2.427-.112-.32-.832-.24-.832-.24l-2.416.016s-.176-.016-.304.064c-.128.064-.208.24-.208.24s-.384 1.013-.896 1.865C10.242 4.377 9.826 4.473 9.65 4.36c-.416-.257-.32-1.044-.32-1.59 0-1.752.272-2.476-.512-2.653C8.562.053 8.37.005 7.698.005c-.864-.016-1.584 0-2 .193-.272.145-.48.434-.352.45.16.016.512.097.704.354.24.322.24 1.078.24 1.078s.144 2.041-.336 2.297c-.32.177-.768-.193-1.728-1.816A16.027 16.027 0 013.378.81S3.298.632 3.17.552a1.078 1.078 0 00-.368-.161L.514.407S.178.423.05.567C-.062.696.05.97.05.97S1.826 5.1 3.858 7.173c1.857 1.913 3.968 1.784 3.968 1.784h.96v.001z" fill="#fff"/></svg>