<svg width="39" height="39" fill="none" xmlns="http://www.w3.org/2000/svg"><circle cx="19.5" cy="19.5" r="19.5" fill="#B8C5D1"/><path fill-rule="evenodd" clip-rule="evenodd" d="M19.786 23.958s.288-.032.432-.176c.144-.145.128-.42.128-.42s-.016-1.268.576-1.445c.592-.194 1.344 1.221 2.144 1.752.608.418 1.072.321 1.072.321l2.128-.032s1.12-.064.593-.932c-.049-.065-.305-.643-1.585-1.816-1.344-1.222-1.168-1.029.448-3.135.976-1.301 1.376-2.089 1.248-2.427-.112-.32-.832-.24-.832-.24l-2.416.016s-.176-.016-.304.064c-.128.064-.208.24-.208.24s-.384 1.013-.896 1.865c-1.072 1.784-1.488 1.88-1.664 1.767-.416-.257-.32-1.044-.32-1.59 0-1.752.272-2.476-.512-2.653-.256-.064-.448-.112-1.12-.112-.864-.016-1.584 0-2 .193-.272.145-.48.434-.352.45.16.016.512.097.704.354.24.322.24 1.078.24 1.078s.144 2.041-.336 2.298c-.32.177-.768-.194-1.728-1.817-.48-.835-.848-1.752-.848-1.752s-.08-.177-.208-.257c-.144-.112-.368-.161-.368-.161l-2.288.016s-.336.016-.464.16c-.112.129 0 .403 0 .403s1.776 4.13 3.808 6.203c1.857 1.913 3.968 1.784 3.968 1.784h.96v.001z" fill="#fff"/></svg>